<mxfile host="Electron" agent="Mozilla/5.0 (Macintosh; Intel Mac OS X 10_15_7) AppleWebKit/537.36 (KHTML, like Gecko) draw.io/26.0.9 Chrome/128.0.6613.186 Electron/32.2.5 Safari/537.36" version="26.0.9">
  <diagram id="evBy-dt-jB8v2-nSfg1o" name="AWS Multi-Server">
    <mxGraphModel dx="1114" dy="999" grid="1" gridSize="10" guides="1" tooltips="1" connect="1" arrows="1" fold="1" page="1" pageScale="1" pageWidth="1100" pageHeight="850" background="#ffffff" math="0" shadow="0">
      <root>
        <mxCell id="0" />
        <mxCell id="1" parent="0" />
        <mxCell id="15" value="Server Subnet 1&lt;br&gt;10.0.0.0/24" style="points=[[0,0],[0.25,0],[0.5,0],[0.75,0],[1,0],[1,0.25],[1,0.5],[1,0.75],[1,1],[0.75,1],[0.5,1],[0.25,1],[0,1],[0,0.75],[0,0.5],[0,0.25]];outlineConnect=0;gradientColor=none;html=1;whiteSpace=wrap;fontSize=12;fontStyle=0;container=1;pointerEvents=0;collapsible=0;recursiveResize=0;shape=mxgraph.aws4.group;grIcon=mxgraph.aws4.group_security_group;grStroke=0;strokeColor=#248814;fillColor=#E9F3E6;verticalAlign=top;align=left;spacingLeft=30;fontColor=#248814;dashed=0;" parent="1" vertex="1">
          <mxGeometry x="461" y="199" width="130" height="141" as="geometry" />
        </mxCell>
        <mxCell id="50" value="&lt;font color=&quot;#000000&quot;&gt;&lt;span style=&quot;font-size: 10px;&quot;&gt;Master Instance&lt;br&gt;Server&lt;/span&gt;&lt;/font&gt;" style="sketch=0;points=[[0,0,0],[0.25,0,0],[0.5,0,0],[0.75,0,0],[1,0,0],[0,1,0],[0.25,1,0],[0.5,1,0],[0.75,1,0],[1,1,0],[0,0.25,0],[0,0.5,0],[0,0.75,0],[1,0.25,0],[1,0.5,0],[1,0.75,0]];outlineConnect=0;fontColor=#232F3E;gradientColor=#F78E04;gradientDirection=north;fillColor=#D05C17;strokeColor=#ffffff;dashed=0;verticalLabelPosition=bottom;verticalAlign=top;align=center;html=1;fontSize=12;fontStyle=0;aspect=fixed;shape=mxgraph.aws4.resourceIcon;resIcon=mxgraph.aws4.ec2;" parent="15" vertex="1">
          <mxGeometry x="45" y="51" width="40" height="40" as="geometry" />
        </mxCell>
        <mxCell id="2" value="AWS Account" style="points=[[0,0],[0.25,0],[0.5,0],[0.75,0],[1,0],[1,0.25],[1,0.5],[1,0.75],[1,1],[0.75,1],[0.5,1],[0.25,1],[0,1],[0,0.75],[0,0.5],[0,0.25]];outlineConnect=0;gradientColor=none;html=1;whiteSpace=wrap;fontSize=12;fontStyle=0;container=1;pointerEvents=0;collapsible=0;recursiveResize=0;shape=mxgraph.aws4.group;grIcon=mxgraph.aws4.group_account;strokeColor=#CD2264;fillColor=none;verticalAlign=top;align=left;spacingLeft=30;fontColor=#CD2264;dashed=0;" parent="1" vertex="1">
          <mxGeometry x="169" y="79" width="711" height="951" as="geometry" />
        </mxCell>
        <mxCell id="11" value="Primary Region - us-east-1" style="points=[[0,0],[0.25,0],[0.5,0],[0.75,0],[1,0],[1,0.25],[1,0.5],[1,0.75],[1,1],[0.75,1],[0.5,1],[0.25,1],[0,1],[0,0.75],[0,0.5],[0,0.25]];outlineConnect=0;gradientColor=none;html=1;whiteSpace=wrap;fontSize=12;fontStyle=0;container=0;pointerEvents=0;collapsible=0;recursiveResize=0;shape=mxgraph.aws4.group;grIcon=mxgraph.aws4.group_region;strokeColor=#147EBA;fillColor=none;verticalAlign=top;align=left;spacingLeft=30;fontColor=#147EBA;dashed=1;" parent="2" vertex="1">
          <mxGeometry x="130" y="20" width="570" height="910" as="geometry" />
        </mxCell>
        <mxCell id="3" value="Mgmt VPC&lt;br&gt;10.0.0.0/16" style="sketch=0;outlineConnect=0;gradientColor=none;html=1;whiteSpace=wrap;fontSize=12;fontStyle=0;shape=mxgraph.aws4.group;grIcon=mxgraph.aws4.group_vpc;strokeColor=#879196;fillColor=none;verticalAlign=top;align=left;spacingLeft=30;fontColor=#879196;dashed=0;" parent="2" vertex="1">
          <mxGeometry x="171" y="49.75" width="519" height="860.25" as="geometry" />
        </mxCell>
        <mxCell id="89" value="AZ 1a" style="sketch=0;outlineConnect=0;gradientColor=none;html=1;whiteSpace=wrap;fontSize=12;fontStyle=0;shape=mxgraph.aws4.group;grIcon=mxgraph.aws4.group_availability_zone;strokeColor=#545B64;fillColor=none;verticalAlign=top;align=left;spacingLeft=30;fontColor=#545B64;dashed=1;" parent="2" vertex="1">
          <mxGeometry x="273" y="74.25" width="173" height="815.75" as="geometry" />
        </mxCell>
        <mxCell id="RPqK958Z3_5kad8X6GZJ-179" value="" style="edgeStyle=orthogonalEdgeStyle;rounded=0;orthogonalLoop=1;jettySize=auto;html=1;" parent="2" source="76" target="RPqK958Z3_5kad8X6GZJ-178" edge="1">
          <mxGeometry relative="1" as="geometry" />
        </mxCell>
        <mxCell id="76" value="Server Security&amp;nbsp; Group" style="fontStyle=0;verticalAlign=top;align=center;spacingTop=-2;fillColor=none;rounded=1;whiteSpace=wrap;html=1;strokeColor=#FF0000;strokeWidth=2;dashed=1;container=0;collapsible=0;expand=0;recursiveResize=0;labelBackgroundColor=none;fontSize=10;fontColor=#000000;arcSize=3;" parent="2" vertex="1">
          <mxGeometry x="285" y="102" width="155" height="167" as="geometry" />
        </mxCell>
        <mxCell id="10" style="edgeStyle=orthogonalEdgeStyle;html=1;exitX=1;exitY=0.5;exitDx=0;exitDy=0;fillColor=#fff2cc;strokeColor=#d6b656;strokeWidth=3;" parent="2" source="_ejaU0It1PnxYZVIgP2c-183" target="76" edge="1">
          <mxGeometry relative="1" as="geometry">
            <mxPoint x="192" y="208" as="targetPoint" />
            <Array as="points">
              <mxPoint x="106" y="211" />
            </Array>
            <mxPoint x="106" y="208" as="sourcePoint" />
          </mxGeometry>
        </mxCell>
        <mxCell id="120" value="Agent Subnet&lt;br&gt;10.0.1.0/24" style="points=[[0,0],[0.25,0],[0.5,0],[0.75,0],[1,0],[1,0.25],[1,0.5],[1,0.75],[1,1],[0.75,1],[0.5,1],[0.25,1],[0,1],[0,0.75],[0,0.5],[0,0.25]];outlineConnect=0;gradientColor=none;html=1;whiteSpace=wrap;fontSize=12;fontStyle=0;container=1;pointerEvents=0;collapsible=0;recursiveResize=0;shape=mxgraph.aws4.group;grIcon=mxgraph.aws4.group_security_group;grStroke=0;strokeColor=#248814;fillColor=#E9F3E6;verticalAlign=top;align=left;spacingLeft=30;fontColor=#248814;dashed=0;" parent="2" vertex="1">
          <mxGeometry x="289" y="365" width="145" height="495" as="geometry" />
        </mxCell>
        <mxCell id="124" value="Dynamic Agent&lt;br&gt;(Small)" style="sketch=0;points=[[0,0,0],[0.25,0,0],[0.5,0,0],[0.75,0,0],[1,0,0],[0,1,0],[0.25,1,0],[0.5,1,0],[0.75,1,0],[1,1,0],[0,0.25,0],[0,0.5,0],[0,0.75,0],[1,0.25,0],[1,0.5,0],[1,0.75,0]];outlineConnect=0;fontColor=#232F3E;gradientColor=#F78E04;gradientDirection=north;fillColor=#D05C17;strokeColor=#ffffff;dashed=0;verticalLabelPosition=bottom;verticalAlign=top;align=center;html=1;fontSize=12;fontStyle=0;aspect=fixed;shape=mxgraph.aws4.resourceIcon;resIcon=mxgraph.aws4.ec2;" parent="120" vertex="1">
          <mxGeometry x="52.5" y="47.5" width="40" height="40" as="geometry" />
        </mxCell>
        <mxCell id="123" value="Agent Security Group" style="fontStyle=0;verticalAlign=top;align=center;spacingTop=-2;fillColor=none;rounded=1;whiteSpace=wrap;html=1;strokeColor=#FF0000;strokeWidth=2;dashed=1;container=0;collapsible=0;expand=0;recursiveResize=0;labelBackgroundColor=none;fontSize=10;fontColor=#000000;arcSize=4;" parent="2" vertex="1">
          <mxGeometry x="286.5" y="345" width="150" height="525" as="geometry" />
        </mxCell>
        <mxCell id="163" style="edgeStyle=orthogonalEdgeStyle;jumpStyle=arc;jumpSize=12;html=1;exitX=0;exitY=0.5;exitDx=0;exitDy=0;labelBackgroundColor=none;strokeColor=#7A0000;strokeWidth=3;fontColor=#FFFFFF;entryX=1;entryY=0.5;entryDx=0;entryDy=0;entryPerimeter=0;" parent="2" source="123" target="165" edge="1">
          <mxGeometry relative="1" as="geometry">
            <Array as="points">
              <mxPoint x="241" y="608" />
              <mxPoint x="241" y="301" />
            </Array>
          </mxGeometry>
        </mxCell>
        <mxCell id="165" value="Internet&lt;br&gt;Gateway" style="outlineConnect=0;dashed=0;verticalLabelPosition=middle;verticalAlign=middle;align=left;html=1;shape=mxgraph.aws3.internet_gateway;fillColor=#F58536;gradientColor=none;fontSize=10;fontColor=#333333;labelPosition=right;" parent="2" vertex="1">
          <mxGeometry x="151" y="281" width="39" height="40" as="geometry" />
        </mxCell>
        <mxCell id="166" style="edgeStyle=orthogonalEdgeStyle;jumpStyle=arc;jumpSize=12;html=1;exitX=0;exitY=0.75;exitDx=0;exitDy=0;labelBackgroundColor=none;strokeColor=#7A0000;strokeWidth=3;fontColor=#FFFFFF;" parent="2" source="76" target="165" edge="1">
          <mxGeometry relative="1" as="geometry">
            <Array as="points">
              <mxPoint x="241" y="227" />
              <mxPoint x="241" y="301" />
            </Array>
          </mxGeometry>
        </mxCell>
        <mxCell id="RPqK958Z3_5kad8X6GZJ-178" value="S3 Bucket for&amp;nbsp;&lt;br&gt;BAM/VCF and Archival" style="outlineConnect=0;dashed=0;verticalLabelPosition=bottom;verticalAlign=top;align=center;html=1;shape=mxgraph.aws3.s3;fillColor=#E05243;gradientColor=none;" parent="2" vertex="1">
          <mxGeometry x="538.5" y="139" width="76.5" height="93" as="geometry" />
        </mxCell>
        <mxCell id="129" value="" style="group" parent="2" vertex="1" connectable="0">
          <mxGeometry x="321" y="721" width="70" height="90" as="geometry" />
        </mxCell>
        <mxCell id="130" value="" style="sketch=0;points=[[0,0,0],[0.25,0,0],[0.5,0,0],[0.75,0,0],[1,0,0],[0,1,0],[0.25,1,0],[0.5,1,0],[0.75,1,0],[1,1,0],[0,0.25,0],[0,0.5,0],[0,0.75,0],[1,0.25,0],[1,0.5,0],[1,0.75,0]];outlineConnect=0;fontColor=#232F3E;gradientColor=#F78E04;gradientDirection=north;fillColor=#D05C17;strokeColor=#ffffff;dashed=0;verticalLabelPosition=bottom;verticalAlign=top;align=center;html=1;fontSize=12;fontStyle=0;aspect=fixed;shape=mxgraph.aws4.resourceIcon;resIcon=mxgraph.aws4.ec2;" parent="129" vertex="1">
          <mxGeometry x="5" width="40" height="40" as="geometry" />
        </mxCell>
        <mxCell id="131" value="" style="sketch=0;points=[[0,0,0],[0.25,0,0],[0.5,0,0],[0.75,0,0],[1,0,0],[0,1,0],[0.25,1,0],[0.5,1,0],[0.75,1,0],[1,1,0],[0,0.25,0],[0,0.5,0],[0,0.75,0],[1,0.25,0],[1,0.5,0],[1,0.75,0]];outlineConnect=0;fontColor=#232F3E;gradientColor=#F78E04;gradientDirection=north;fillColor=#D05C17;strokeColor=#ffffff;dashed=0;verticalLabelPosition=bottom;verticalAlign=top;align=center;html=1;fontSize=12;fontStyle=0;aspect=fixed;shape=mxgraph.aws4.resourceIcon;resIcon=mxgraph.aws4.ec2;" parent="129" vertex="1">
          <mxGeometry x="15" y="10" width="40" height="40" as="geometry" />
        </mxCell>
        <mxCell id="132" value="" style="sketch=0;points=[[0,0,0],[0.25,0,0],[0.5,0,0],[0.75,0,0],[1,0,0],[0,1,0],[0.25,1,0],[0.5,1,0],[0.75,1,0],[1,1,0],[0,0.25,0],[0,0.5,0],[0,0.75,0],[1,0.25,0],[1,0.5,0],[1,0.75,0]];outlineConnect=0;fontColor=#232F3E;gradientColor=#F78E04;gradientDirection=north;fillColor=#D05C17;strokeColor=#ffffff;dashed=0;verticalLabelPosition=bottom;verticalAlign=top;align=center;html=1;fontSize=12;fontStyle=0;aspect=fixed;shape=mxgraph.aws4.resourceIcon;resIcon=mxgraph.aws4.ec2;" parent="129" vertex="1">
          <mxGeometry x="25" y="20" width="40" height="40" as="geometry" />
        </mxCell>
        <mxCell id="133" value="Dynamic Agent&lt;br&gt;(Large)" style="text;html=1;strokeColor=none;fillColor=none;align=center;verticalAlign=middle;whiteSpace=wrap;rounded=0;fontSize=10;" parent="129" vertex="1">
          <mxGeometry y="60" width="70" height="30" as="geometry" />
        </mxCell>
        <mxCell id="93" value="" style="group" parent="2" vertex="1" connectable="0">
          <mxGeometry x="325" y="557" width="70" height="90" as="geometry" />
        </mxCell>
        <mxCell id="94" value="" style="sketch=0;points=[[0,0,0],[0.25,0,0],[0.5,0,0],[0.75,0,0],[1,0,0],[0,1,0],[0.25,1,0],[0.5,1,0],[0.75,1,0],[1,1,0],[0,0.25,0],[0,0.5,0],[0,0.75,0],[1,0.25,0],[1,0.5,0],[1,0.75,0]];outlineConnect=0;fontColor=#232F3E;gradientColor=#F78E04;gradientDirection=north;fillColor=#D05C17;strokeColor=#ffffff;dashed=0;verticalLabelPosition=bottom;verticalAlign=top;align=center;html=1;fontSize=12;fontStyle=0;aspect=fixed;shape=mxgraph.aws4.resourceIcon;resIcon=mxgraph.aws4.ec2;" parent="93" vertex="1">
          <mxGeometry x="5" width="40" height="40" as="geometry" />
        </mxCell>
        <mxCell id="96" value="&lt;div&gt;&lt;br&gt;&lt;/div&gt;&lt;div&gt;f&lt;/div&gt;" style="sketch=0;points=[[0,0,0],[0.25,0,0],[0.5,0,0],[0.75,0,0],[1,0,0],[0,1,0],[0.25,1,0],[0.5,1,0],[0.75,1,0],[1,1,0],[0,0.25,0],[0,0.5,0],[0,0.75,0],[1,0.25,0],[1,0.5,0],[1,0.75,0]];outlineConnect=0;fontColor=#232F3E;gradientColor=#F78E04;gradientDirection=north;fillColor=#D05C17;strokeColor=#ffffff;dashed=0;verticalLabelPosition=bottom;verticalAlign=top;align=center;html=1;fontSize=12;fontStyle=0;aspect=fixed;shape=mxgraph.aws4.resourceIcon;resIcon=mxgraph.aws4.ec2;" parent="93" vertex="1">
          <mxGeometry x="25" y="20" width="40" height="40" as="geometry" />
        </mxCell>
        <mxCell id="97" value="Dynamic Agent (Medium)" style="text;html=1;strokeColor=none;fillColor=none;align=center;verticalAlign=middle;whiteSpace=wrap;rounded=0;fontSize=10;" parent="93" vertex="1">
          <mxGeometry y="60" width="70" height="30" as="geometry" />
        </mxCell>
        <mxCell id="_ejaU0It1PnxYZVIgP2c-183" value="" style="image;aspect=fixed;perimeter=ellipsePerimeter;html=1;align=center;shadow=0;dashed=0;spacingTop=3;image=img/lib/active_directory/internet_globe.svg;" vertex="1" parent="2">
          <mxGeometry x="41" y="182" width="50" height="50" as="geometry" />
        </mxCell>
        <mxCell id="_ejaU0It1PnxYZVIgP2c-189" value="&lt;i&gt;institute&lt;/i&gt;.varseq.com" style="whiteSpace=wrap;html=1;fillColor=#eeeeee;strokeColor=#36393d;shadow=0;" vertex="1" parent="2">
          <mxGeometry x="6" y="221" width="120" height="20" as="geometry" />
        </mxCell>
        <mxCell id="_ejaU0It1PnxYZVIgP2c-192" value="" style="image;aspect=fixed;perimeter=ellipsePerimeter;html=1;align=center;shadow=0;dashed=0;spacingTop=3;image=img/lib/active_directory/firewall.svg;" vertex="1" parent="2">
          <mxGeometry x="190" y="182" width="30.5" height="50" as="geometry" />
        </mxCell>
        <mxCell id="_ejaU0It1PnxYZVIgP2c-194" value="&lt;i&gt;IP Whitelist Optional&lt;br&gt;&lt;/i&gt;" style="whiteSpace=wrap;html=1;fillColor=#eeeeee;strokeColor=#36393d;shadow=0;" vertex="1" parent="2">
          <mxGeometry x="151" y="162" width="120" height="20" as="geometry" />
        </mxCell>
        <mxCell id="44" value="" style="edgeStyle=orthogonalEdgeStyle;html=1;exitX=1;exitY=0.5;exitDx=0;exitDy=0;exitPerimeter=0;entryX=0;entryY=0.5;entryDx=0;entryDy=0;fontSize=10;strokeWidth=3;strokeColor=#333333;labelBackgroundColor=none;fontColor=#1A1A1A;shadow=1;" parent="1" source="_ejaU0It1PnxYZVIgP2c-186" target="_ejaU0It1PnxYZVIgP2c-183" edge="1">
          <mxGeometry x="-0.2734" y="15" relative="1" as="geometry">
            <mxPoint as="offset" />
            <mxPoint x="100" y="286.70000000000005" as="sourcePoint" />
            <mxPoint x="225" y="287" as="targetPoint" />
          </mxGeometry>
        </mxCell>
        <mxCell id="119" value="&lt;u style=&quot;font-size: 16px;&quot;&gt;AWS Golden Helix Server (Single Region with NAT Gateway) Terraform Deployment&lt;/u&gt;" style="text;html=1;strokeColor=none;fillColor=none;align=center;verticalAlign=middle;whiteSpace=wrap;rounded=0;dashed=1;labelBackgroundColor=none;strokeWidth=2;fontSize=16;fontColor=#000000;" parent="1" vertex="1">
          <mxGeometry x="205" y="30" width="625" height="30" as="geometry" />
        </mxCell>
        <mxCell id="174" value="kkkkkkk" style="group" parent="1" vertex="1" connectable="0">
          <mxGeometry x="1.5100000000000016" y="340" width="126.98000000000002" height="80" as="geometry" />
        </mxCell>
        <mxCell id="175" value="" style="aspect=fixed;perimeter=ellipsePerimeter;html=1;align=center;shadow=0;dashed=0;spacingTop=3;image;image=img/lib/active_directory/internet_cloud.svg;" parent="174" vertex="1">
          <mxGeometry width="126.98" height="80" as="geometry" />
        </mxCell>
        <mxCell id="176" value="Internet" style="text;html=1;strokeColor=none;fillColor=none;align=center;verticalAlign=middle;whiteSpace=wrap;rounded=0;fontColor=#000000;" parent="174" vertex="1">
          <mxGeometry x="24" y="22" width="90" height="30" as="geometry" />
        </mxCell>
        <mxCell id="177" style="edgeStyle=orthogonalEdgeStyle;jumpStyle=arc;jumpSize=12;html=1;labelBackgroundColor=none;strokeColor=#7A0000;strokeWidth=3;fontColor=#FFFFFF;exitX=0;exitY=0.5;exitDx=0;exitDy=0;exitPerimeter=0;" parent="1" source="165" target="175" edge="1">
          <mxGeometry relative="1" as="geometry">
            <mxPoint x="98.49000000000012" y="379.82" as="targetPoint" />
            <mxPoint x="260" y="379.82" as="sourcePoint" />
          </mxGeometry>
        </mxCell>
        <mxCell id="_ejaU0It1PnxYZVIgP2c-187" value="" style="image;aspect=fixed;html=1;points=[];align=center;fontSize=12;image=img/lib/azure2/general/Browser.svg;" vertex="1" parent="1">
          <mxGeometry x="18" y="240" width="65" height="52" as="geometry" />
        </mxCell>
        <mxCell id="_ejaU0It1PnxYZVIgP2c-186" value="" style="outlineConnect=0;dashed=0;verticalLabelPosition=bottom;verticalAlign=top;align=center;html=1;shape=mxgraph.aws3.users;fillColor=#D2D3D3;gradientColor=none;" vertex="1" parent="1">
          <mxGeometry x="46" y="254.5" width="66" height="63" as="geometry" />
        </mxCell>
      </root>
    </mxGraphModel>
  </diagram>
</mxfile>
